<?xml version="1.0" ?><svg height="24" id="svg19837" version="1.1" viewBox="0 0 24 24" width="24" xmlns="http://www.w3.org/2000/svg" xmlns:cc="http://creativecommons.org/ns#" xmlns:dc="http://purl.org/dc/elements/1.1/" xmlns:inkscape="http://www.inkscape.org/namespaces/inkscape" xmlns:rdf="http://www.w3.org/1999/02/22-rdf-syntax-ns#" xmlns:sodipodi="http://sodipodi.sourceforge.net/DTD/sodipodi-0.dtd" xmlns:svg="http://www.w3.org/2000/svg"><defs id="defs19839"/><g id="layer1" transform="translate(0,-1028.3622)"><path d="m 12,1028.3622 c -6.6155799,0 -11.999999905000001,5.3845 -11.999999905000001,12 0,6.6156 5.384420005000001,12 11.999999905000001,12 6.61557,0 12,-5.3844 12,-12 0,-6.6155 -5.38443,-12 -12,-12 z m 0,4 c 1.64501,0 3,1.355 3,3 0,1.645 -1.35499,3 -3,3 -1.64501,0 -2.9999999,-1.355 -2.9999999,-3 0,-1.645 1.3549899,-3 2.9999999,-3 z m -0.0977,8.002 c 1.79868,-0.029 3.63429,0.3023 5.48633,1.0839 l 0.61133,0.2579 0,3.6562 0,2 -11.9999999,0 0,-2 0,-3.6797 0.64062,-0.2461 c 1.70148,-0.6554 3.4630399,-1.0432 5.2617199,-1.0722 z" id="path11759" style="color:#000000;font-style:normal;font-variant:normal;font-weight:normal;font-stretch:normal;font-size:medium;line-height:normal;font-family:sans-serif;text-indent:0;text-align:start;text-decoration:none;text-decoration-line:none;text-decoration-style:solid;text-decoration-color:#000000;letter-spacing:normal;word-spacing:normal;text-transform:none;direction:ltr;block-progression:tb;writing-mode:lr-tb;baseline-shift:baseline;text-anchor:start;white-space:normal;clip-rule:nonzero;display:inline;overflow:visible;visibility:visible;opacity:1;isolation:auto;mix-blend-mode:normal;color-interpolation:sRGB;color-interpolation-filters:linearRGB;solid-color:#000000;solid-opacity:1;fill:#666666;fill-opacity:1;fill-rule:nonzero;stroke:none;stroke-width:2;stroke-linecap:butt;stroke-linejoin:miter;stroke-miterlimit:4;stroke-dasharray:none;stroke-dashoffset:0;stroke-opacity:1;color-rendering:auto;image-rendering:auto;shape-rendering:auto;text-rendering:auto;enable-background:accumulate"/></g></svg>